<svg width="20" height="21" viewBox="0 0 20 21" fill="none" xmlns="http://www.w3.org/2000/svg">
<path d="M5.45 4.87834C5.5 5.62 5.625 6.345 5.825 7.03667L4.825 8.03667C4.48333 7.03667 4.26667 5.97834 4.19167 4.87834H5.45ZM13.6667 14.895C14.375 15.095 15.1 15.22 15.8333 15.27V16.5117C14.7333 16.4367 13.675 16.22 12.6667 15.8867L13.6667 14.895ZM6.25 3.21167H3.33333C2.875 3.21167 2.5 3.58667 2.5 4.045C2.5 11.87 8.84167 18.2117 16.6667 18.2117C17.125 18.2117 17.5 17.8367 17.5 17.3783V14.47C17.5 14.0117 17.125 13.6367 16.6667 13.6367C15.6333 13.6367 14.625 13.47 13.6917 13.1617C13.6083 13.1283 13.5167 13.12 13.4333 13.12C13.2167 13.12 13.0083 13.2033 12.8417 13.3617L11.0083 15.195C8.65 13.9867 6.71667 12.0617 5.51667 9.70334L7.35 7.87C7.58333 7.63667 7.65 7.31167 7.55833 7.02C7.25 6.08667 7.08333 5.08667 7.08333 4.045C7.08333 3.58667 6.70833 3.21167 6.25 3.21167Z" fill="#323232"/>
</svg>
