<svg width="20" height="21" viewBox="0 0 20 21" fill="none" xmlns="http://www.w3.org/2000/svg">
<path d="M10 2.37834C5.40002 2.37834 1.66669 6.11167 1.66669 10.7117C1.66669 15.3117 5.40002 19.045 10 19.045C14.6 19.045 18.3334 15.3117 18.3334 10.7117C18.3334 6.11167 14.6 2.37834 10 2.37834ZM10 17.3783C6.32502 17.3783 3.33335 14.3867 3.33335 10.7117C3.33335 7.03667 6.32502 4.045 10 4.045C13.675 4.045 16.6667 7.03667 16.6667 10.7117C16.6667 14.3867 13.675 17.3783 10 17.3783ZM10.2584 9.99501C8.78335 9.62001 8.30835 9.21167 8.30835 8.60334C8.30835 7.90334 8.96669 7.41167 10.0584 7.41167C11.2084 7.41167 11.6417 7.96167 11.675 8.77834H13.1C13.0584 7.66167 12.375 6.63667 11.025 6.30334V4.87834H9.08335V6.28667C7.82502 6.55334 6.81669 7.37 6.81669 8.62834C6.81669 10.12 8.05835 10.87 9.86669 11.3033C11.4917 11.6867 11.8167 12.2617 11.8167 12.8617C11.8167 13.3033 11.4917 14.02 10.0667 14.02C8.73335 14.02 8.20835 13.42 8.13335 12.6533H6.70002C6.78335 14.07 7.83335 14.87 9.08335 15.1283V16.545H11.0334V15.1533C12.3 14.9117 13.3 14.1867 13.3084 12.845C13.3 11.0117 11.725 10.3783 10.2584 9.99501Z" fill="#323232"/>
</svg>
