<svg width="24" height="25" viewBox="0 0 24 25" fill="none" xmlns="http://www.w3.org/2000/svg">
<path d="M2.5 6.46173C2.5 5.21909 3.50736 4.21173 4.75 4.21173H6.25C6.38807 4.21173 6.5 4.32366 6.5 4.46173C6.5 4.5998 6.38807 4.71173 6.25 4.71173H4.75C3.7835 4.71173 3 5.49523 3 6.46173V7.96173C3 8.0998 2.88807 8.21173 2.75 8.21173C2.61193 8.21173 2.5 8.0998 2.5 7.96173V6.46173ZM17.5 4.46173C17.5 4.32367 17.6119 4.21173 17.75 4.21173H19.25C20.4927 4.21173 21.5 5.21909 21.5 6.46173V7.96173C21.5 8.09979 21.3881 8.21173 21.25 8.21173C21.1119 8.21173 21 8.09979 21 7.96173V6.46173C21 5.49524 20.2166 4.71173 19.25 4.71173H17.75C17.6119 4.71173 17.5 4.59979 17.5 4.46173ZM2.75 17.2117C2.88806 17.2117 3 17.3237 3 17.4617V18.9617C3 19.9283 3.78351 20.7117 4.75 20.7117H6.25C6.38806 20.7117 6.5 20.8237 6.5 20.9617C6.5 21.0998 6.38806 21.2117 6.25 21.2117H4.75C3.50736 21.2117 2.5 20.2044 2.5 18.9617V17.4617C2.5 17.3237 2.61194 17.2117 2.75 17.2117ZM21.25 17.2117C21.3881 17.2117 21.5 17.3237 21.5 17.4617V18.9617C21.5 20.2044 20.4927 21.2117 19.25 21.2117H17.75C17.6119 21.2117 17.5 21.0998 17.5 20.9617C17.5 20.8237 17.6119 20.7117 17.75 20.7117H19.25C20.2165 20.7117 21 19.9283 21 18.9617V17.4617C21 17.3237 21.1119 17.2117 21.25 17.2117ZM5.75 8.21173C5.88807 8.21173 6 8.32366 6 8.46173V16.9617C6 17.0998 5.88806 17.2117 5.75 17.2117C5.61194 17.2117 5.5 17.0998 5.5 16.9617V8.46173C5.5 8.32366 5.61193 8.21173 5.75 8.21173ZM9.75 8.21173C9.88806 8.21173 10 8.32367 10 8.46173V16.9617C10 17.0998 9.88806 17.2117 9.75 17.2117C9.61194 17.2117 9.5 17.0998 9.5 16.9617V8.46173C9.5 8.32366 9.61193 8.21173 9.75 8.21173ZM13.75 8.21173C13.8881 8.21173 14 8.32367 14 8.46173V16.9617C14 17.0998 13.8881 17.2117 13.75 17.2117C13.6119 17.2117 13.5 17.0998 13.5 16.9617V8.46173C13.5 8.32367 13.6119 8.21173 13.75 8.21173ZM17.75 8.21173C17.8881 8.21173 18 8.32367 18 8.46173V16.9617C18 17.0998 17.8881 17.2117 17.75 17.2117C17.6119 17.2117 17.5 17.0998 17.5 16.9617V8.46173C17.5 8.32367 17.6119 8.21173 17.75 8.21173Z" fill="white" stroke="white"/>
</svg>
