<svg width="27" height="28" viewBox="0 0 27 28" fill="none" xmlns="http://www.w3.org/2000/svg">
<path d="M16.608 19.696H22.128L20.5769 18.1449C20.3686 17.9365 20.2033 17.6892 20.0906 17.417C19.9779 17.1448 19.9199 16.853 19.92 16.5584V13.072C19.9202 11.7019 19.4956 10.3654 18.7047 9.24651C17.9139 8.12766 16.7957 7.28147 15.504 6.82445V6.44799C15.504 5.86239 15.2714 5.30078 14.8573 4.8867C14.4432 4.47262 13.8816 4.23999 13.296 4.23999C12.7104 4.23999 12.1488 4.47262 11.7347 4.8867C11.3206 5.30078 11.088 5.86239 11.088 6.44799V6.82445C8.51567 7.73415 6.67199 10.1883 6.67199 13.072V16.5595C6.67199 17.1535 6.43573 17.7242 6.01511 18.1449L4.46399 19.696H9.98399M16.608 19.696H9.98399M16.608 19.696V20.8C16.608 21.6784 16.259 22.5208 15.6379 23.1419C15.0168 23.763 14.1744 24.112 13.296 24.112C12.4176 24.112 11.5752 23.763 10.9541 23.1419C10.3329 22.5208 9.98399 21.6784 9.98399 20.8V19.696" stroke="black" stroke-width="2.208" stroke-linecap="round" stroke-linejoin="round"/>
</svg>
