<svg width="23" height="31" viewBox="0 0 23 31" fill="none" xmlns="http://www.w3.org/2000/svg">
<path fill-rule="evenodd" clip-rule="evenodd" d="M16.777 6.01576C16.7793 7.09808 16.4007 8.78782 15.2138 9.98269C14.8911 10.3092 14.5327 10.5984 14.1454 10.8449C13.5886 11.2082 13.1837 11.4613 13.4128 12.0671C13.6356 12.6602 14.3239 12.4747 14.978 12.3255C15.1881 12.2739 19.2856 11.2808 19.3379 11.2785C19.8662 11.1777 20.413 11.284 20.865 11.5753C21.3171 11.8667 21.6396 12.3209 21.7659 12.8437L22.101 14.2314C22.2276 14.7543 22.1489 15.3059 21.8809 15.7725C21.6129 16.2392 21.1762 16.5852 20.6606 16.7393C20.6144 16.7596 16.1362 17.8513 16.1286 17.853C15.2784 18.0721 14.7805 18.4973 14.7838 19.3209C14.7838 19.6872 14.9973 20.0868 15.2597 20.4175C15.2597 20.4175 20.1428 26.4555 20.1671 26.5028C20.4862 26.9361 20.6269 27.4753 20.5602 28.0092C20.4936 28.5432 20.2246 29.0312 19.8088 29.3728L18.7035 30.2756C18.2877 30.616 17.7567 30.783 17.2209 30.742C16.6851 30.701 16.1857 30.4551 15.8265 30.0555C15.7869 30.0222 12.7541 26.3037 12.4327 25.908C12.1114 25.5124 11.7057 24.9143 11.1439 24.9183C10.5821 24.9223 10.1838 25.5224 9.86314 25.9174C9.54244 26.3123 6.52761 30.0468 6.49031 30.0801C6.13272 30.4813 5.63435 30.7294 5.09869 30.7728C4.56302 30.8162 4.03121 30.6516 3.61369 30.3132C3.60436 30.3049 2.50839 29.4164 2.50506 29.4157C2.08861 29.0762 1.8178 28.5902 1.74814 28.0574C1.67849 27.5246 1.81525 26.9853 2.13042 26.5501C2.15406 26.5028 7.00916 20.4402 7.00916 20.4402C7.26925 20.1072 7.48071 19.7075 7.48005 19.3412C7.47672 18.518 6.98052 18.0954 6.12666 17.8803C6.11933 17.8803 1.63622 16.8089 1.59059 16.7893C1.07374 16.6377 0.634794 16.2935 0.364315 15.8277C0.0938346 15.3619 0.0124531 14.81 0.136959 14.286C0.138625 14.2733 0.463319 12.8999 0.464984 12.8956C0.58898 12.3725 0.909285 11.917 1.35966 11.6234C1.81003 11.3298 2.35602 11.2205 2.88471 11.3181C2.93533 11.3181 7.0388 12.2949 7.2496 12.3448C7.90365 12.49 8.59533 12.6738 8.81479 12.0784C9.03825 11.471 8.6333 11.2195 8.07482 10.8592C7.68585 10.615 7.32588 10.3275 7.00183 10.002C5.80895 8.81513 5.42165 7.12538 5.41899 6.04307C5.41133 2.93899 7.9879 0.416366 11.084 0.408041C14.1801 0.399715 16.7693 2.91102 16.776 6.01576H16.777Z" fill="white"/>
</svg>
